# xmcd CD database file generated by Grip 3.2.0
# 
# Track frame offsets:
#       150
#       11337
#       22128
#       30666
#       42361
#       53934
#       65849
#       76348
#       88874
#       100083
#       109731
#       123613
#       136247
#       147183
#       157503
#       167564
#       180971
#       192200
#       205319
#       217308
# 
# Disc length: 3038 seconds
# 
# Revision: 2
# Processed by: cddbd v1.5.1PL2 Copyright (c) Steve Scherf et al.
# Submitted via: Grip 3.2.0
# 
DISCID=140bdc14
DTITLE=Various Artist - Rhythm and Blues Goes Rock 'n' Roll - Vol 2 - Disc 10
DYEAR=2002
DGENRE=Other
TTITLE0=J. D. Edwards - Hobo
TTITLE1=Barons - Who's In The Shack
TTITLE2=Arthur Gunter - We're Gonna Shake
TTITLE3=Otis Spann - It Must Have Been The Devil
TTITLE4=Johnny Jones - Hoy Hoy
TTITLE5=Jessie Hill - Oogsey Moo
TTITLE6=Bobby Long - Jersey City
TTITLE7=Louisiana Red - Ride On Red
TTITLE8=Junior Wells - Little By Little
TTITLE9=Harold Burrage - She Knocks Me Out
TTITLE10=Jack Dupree - Nasty Boogie
TTITLE11=Vincent Franks - Vincent's Boogie
TTITLE12=Little Sonny - Back Shack Track
TTITLE13=Little Larry - Ride With Me
TTITLE14=Idols - The Prowler
TTITLE15=Sly Fox - Hoo Doo Say
TTITLE16=Little Willie John - Leave My Kitten Alone
TTITLE17=Stomp Gordon - Ride Superman Ride
TTITLE18=Lightnin' Hopkins - Hip Hit Record Man
TTITLE19=Jimmy Liggins - I Ain't Drunk
EXTD=YEAR: 2002
EXTT0=
EXTT1=
EXTT2=
EXTT3=
EXTT4=
EXTT5=
EXTT6=
EXTT7=
EXTT8=
EXTT9=
EXTT10=
EXTT11=
EXTT12=
EXTT13=
EXTT14=
EXTT15=
EXTT16=
EXTT17=
EXTT18=
EXTT19=
PLAYORDER=
